<?xml version="1.0" encoding="UTF-8" standalone="no"?>
<!-- Created with Inkscape (http://www.inkscape.org/) -->

<svg
   xmlns:dc="http://purl.org/dc/elements/1.1/"
   xmlns:cc="http://creativecommons.org/ns#"
   xmlns:rdf="http://www.w3.org/1999/02/22-rdf-syntax-ns#"
   xmlns:svg="http://www.w3.org/2000/svg"
   xmlns="http://www.w3.org/2000/svg"
   xmlns:sodipodi="http://sodipodi.sourceforge.net/DTD/sodipodi-0.dtd"
   xmlns:inkscape="http://www.inkscape.org/namespaces/inkscape"
   width="12.080989mm"
   height="8.5366783mm"
   viewBox="0 0 12.08099 8.5366784"
   version="1.1"
   id="svg8"
   inkscape:version="0.92.4 (5da689c313, 2019-01-14)"
   sodipodi:docname="Logo_KN.svg">
  <defs
     id="defs2" />
  <sodipodi:namedview
     id="base"
     pagecolor="#000000"
     bordercolor="#666666"
     borderopacity="1.0"
     inkscape:pageopacity="0"
     inkscape:pageshadow="2"
     inkscape:zoom="2.8"
     inkscape:cx="107.23002"
     inkscape:cy="-14.850177"
     inkscape:document-units="mm"
     inkscape:current-layer="text45"
     showgrid="false"
     fit-margin-top="0"
     fit-margin-left="0"
     fit-margin-right="0"
     fit-margin-bottom="0"
     inkscape:window-width="1920"
     inkscape:window-height="1017"
     inkscape:window-x="-8"
     inkscape:window-y="-8"
     inkscape:window-maximized="1"
     inkscape:pagecheckerboard="false" />
  <metadata
     id="metadata5">
    <rdf:RDF>
      <cc:Work
         rdf:about="">
        <dc:format>image/svg+xml</dc:format>
        <dc:type
           rdf:resource="http://purl.org/dc/dcmitype/StillImage" />
        <dc:title></dc:title>
      </cc:Work>
    </rdf:RDF>
  </metadata>
  <g
     inkscape:label="Layer 1"
     inkscape:groupmode="layer"
     id="layer1"
     transform="translate(-25.636922,-58.515893)">
    <g
       aria-label="KYLE NORRIS"
       style="font-style:normal;font-weight:normal;font-size:10.58333302px;line-height:1.25;font-family:sans-serif;letter-spacing:0px;word-spacing:0px;fill:#000000;fill-opacity:1;stroke:none;stroke-width:0.26458332"
       id="text12">
      <g
         aria-label="KN"
         style="font-style:normal;font-weight:normal;font-size:10.58333302px;line-height:1.25;font-family:sans-serif;letter-spacing:0px;word-spacing:0px;fill:#ff9955;fill-opacity:1;stroke:#ff9955;stroke-width:0.07000434;stroke-opacity:1"
         id="text45"
         transform="translate(-2.6058779,0.70158251)">
        <path
           d="m 33.982218,66.315987 c 0.05292,0 0.09525,-0.02117 0.127,-0.07408 0.02117,-0.05292 0.02117,-0.105833 0,-0.148166 -0.03175,-0.04233 -2.656417,-4.307417 -2.973917,-4.942417 -0.127,-0.243417 -0.09525,-0.550333 -0.04233,-0.709083 0.0635,-0.211667 0.8255,-1.449917 1.354667,-2.286 h 1.27 l -1.735667,3.048 c -0.04233,0.07408 -0.02117,0.169333 0.0635,0.211666 0.07408,0.04233 0.169333,0.02117 0.211667,-0.05292 l 1.852083,-3.280833 c 0.02117,-0.04233 0.02117,-0.105834 0,-0.148167 -0.03175,-0.04233 -0.07408,-0.08467 -0.127,-0.08467 h -1.61925 c -0.05292,0 -0.105833,0.03175 -0.127,0.07408 -0.137583,0.211666 -1.322917,2.095499 -1.42875,2.423583 -0.0635,0.179916 -0.116417,0.592666 0.05292,0.941916 0.28575,0.560917 2.286,3.81 2.846916,4.73075 H 32.352385 C 32.087801,65.59632 30.659051,63.37382 30.405051,62.96107 c -0.211666,-0.41275 -0.254,-0.814917 -0.254,-1.291167 V 58.00807 c 0,-0.08467 -0.0635,-0.15875 -0.148166,-0.15875 h -1.576917 c -0.08467,0 -0.148166,0.07408 -0.148166,0.15875 v 8.15975 c 0,0.08467 0.0635,0.148167 0.148166,0.148167 h 1.576917 c 0.08467,0 0.148166,-0.0635 0.148166,-0.148167 v -1.788583 c 0,-0.08467 -0.0635,-0.137584 -0.148166,-0.137584 -0.08467,0 -0.15875,0.05292 -0.15875,0.137584 v 1.640416 h -1.27 v -7.863416 h 1.27 v 3.513666 c 0,0.455084 0.04233,0.941917 0.296333,1.439334 0.296333,0.47625 1.947333,3.037416 2.010833,3.14325 0.02117,0.04233 0.07408,0.0635 0.127,0.0635 z"
           style="font-style:normal;font-variant:normal;font-weight:normal;font-stretch:normal;font-family:Neoneon;-inkscape-font-specification:Neoneon;fill:#ff9955;fill-opacity:1;stroke:#ff9955;stroke-width:0.07000434;stroke-opacity:1"
           id="path47"
           inkscape:connector-curvature="0" />
        <path
           d="m 35.801448,58.156237 c 0.41275,0 0.560917,0.137583 0.751417,0.465667 l 3.46075,6.286499 0.01058,0.01058 c 0.01058,0.02117 0.03175,0.04233 0.05292,0.04233 0.01058,0.01058 0.04233,0.02117 0.05292,0.02117 h 0.05292 c 0.02117,0 0.03175,-0.02117 0.05292,-0.02117 0.01058,-0.01058 0.03175,-0.03175 0.04233,-0.04233 0.01058,-0.02117 0.01058,-0.04233 0.01058,-0.0635 v -0.02117 -6.82625 c 0,-0.08467 -0.05292,-0.15875 -0.137584,-0.15875 h -1.629833 c -0.08467,0 -0.148167,0.07408 -0.148167,0.15875 v 1.926167 c 0,0.08467 0.0635,0.15875 0.148167,0.15875 0.08467,0 0.15875,-0.07408 0.15875,-0.15875 v -1.778 h 1.312333 v 6.085416 l -3.175,-5.757333 c -0.22225,-0.391583 -0.465666,-0.635 -1.016,-0.635 h -1.2065 c -0.08467,0 -0.148166,0.07408 -0.148166,0.15875 v 8.15975 c 0,0.04233 0.01058,0.08467 0.04233,0.105833 0.02117,0.03175 0.0635,0.04233 0.105833,0.04233 h 1.576917 c 0.08467,0 0.148167,-0.0635 0.148167,-0.148167 v -4.593167 l 2.06375,3.947584 v 0.01058 l 0.169333,0.264583 c 0.254,0.370417 0.550333,0.518584 1.058333,0.518584 h 0.53975 c 0.08467,0 0.137584,-0.0635 0.137584,-0.148167 0,-0.08467 -0.05292,-0.148167 -0.137584,-0.148167 h -0.53975 c -0.465666,0 -0.635,-0.137583 -0.79375,-0.381 l -0.169333,-0.264583 -2.338917,-4.487333 -0.02117,-0.02117 c -0.01058,-0.01058 -0.02117,-0.03175 -0.04233,-0.04233 -0.02117,-0.01058 -0.04233,-0.01058 -0.0635,-0.01058 h -0.05292 c -0.02117,0 -0.03175,0.01058 -0.05292,0.02117 -0.02117,0.01058 -0.03175,0.02117 -0.04233,0.04233 -0.01058,0.02117 -0.02117,0.04233 -0.02117,0.0635 v 0.02117 5.058833 h -1.27 V 58.15623 Z"
           style="font-style:normal;font-variant:normal;font-weight:normal;font-stretch:normal;font-family:Neoneon;-inkscape-font-specification:Neoneon;fill:#ff9955;fill-opacity:1;stroke:#ff9955;stroke-width:0.07000434;stroke-opacity:1"
           id="path49"
           inkscape:connector-curvature="0" />
      </g>
    </g>
  </g>
</svg>
