<?xml version="1.0" encoding="UTF-8" standalone="no"?>
<!-- Created with Inkscape (http://www.inkscape.org/) -->

<svg
   xmlns:dc="http://purl.org/dc/elements/1.1/"
   xmlns:cc="http://creativecommons.org/ns#"
   xmlns:rdf="http://www.w3.org/1999/02/22-rdf-syntax-ns#"
   xmlns:svg="http://www.w3.org/2000/svg"
   xmlns="http://www.w3.org/2000/svg"
   xmlns:sodipodi="http://sodipodi.sourceforge.net/DTD/sodipodi-0.dtd"
   xmlns:inkscape="http://www.inkscape.org/namespaces/inkscape"
   width="126.49484mm"
   height="18.60409mm"
   viewBox="0 0 126.49485 18.60409"
   version="1.1"
   id="svg8"
   inkscape:version="0.92.4 (5da689c313, 2019-01-14)"
   sodipodi:docname="Name_Neoneon.svg">
  <defs
     id="defs2" />
  <sodipodi:namedview
     id="base"
     pagecolor="#00223d"
     bordercolor="#666666"
     borderopacity="1.0"
     inkscape:pageopacity="0"
     inkscape:pageshadow="2"
     inkscape:zoom="1.4"
     inkscape:cx="375.34595"
     inkscape:cy="3.4491468"
     inkscape:document-units="mm"
     inkscape:current-layer="text12"
     showgrid="false"
     fit-margin-top="0"
     fit-margin-left="0"
     fit-margin-right="0"
     fit-margin-bottom="0"
     inkscape:window-width="1920"
     inkscape:window-height="1017"
     inkscape:window-x="-8"
     inkscape:window-y="-8"
     inkscape:window-maximized="1" />
  <metadata
     id="metadata5">
    <rdf:RDF>
      <cc:Work
         rdf:about="">
        <dc:format>image/svg+xml</dc:format>
        <dc:type
           rdf:resource="http://purl.org/dc/dcmitype/StillImage" />
        <dc:title></dc:title>
      </cc:Work>
    </rdf:RDF>
  </metadata>
  <g
     inkscape:label="Layer 1"
     inkscape:groupmode="layer"
     id="layer1"
     transform="translate(-24.190477,-53.393025)">
    <g
       aria-label="KYLE NORRIS"
       style="font-style:normal;font-weight:normal;font-size:10.58333302px;line-height:1.25;font-family:sans-serif;letter-spacing:0px;word-spacing:0px;fill:#000000;fill-opacity:1;stroke:none;stroke-width:0.26458332"
       id="text12">
      <path
         d="m 36.3599,71.726181 c 0.112889,0 0.2032,-0.04516 0.270933,-0.158044 0.04516,-0.112889 0.04516,-0.225778 0,-0.316089 -0.06773,-0.09031 -5.667022,-9.189156 -6.344356,-10.543823 -0.270933,-0.519288 -0.2032,-1.174044 -0.09031,-1.512711 0.135467,-0.451555 1.761067,-3.093155 2.889956,-4.8768 h 2.709333 l -3.702755,6.5024 c -0.09031,0.158045 -0.04516,0.361245 0.135466,0.451556 0.158045,0.09031 0.361245,0.04516 0.451556,-0.112889 l 3.951111,-6.999111 c 0.04516,-0.09031 0.04516,-0.225778 0,-0.316089 C 36.5631,53.75427 36.472789,53.663959 36.3599,53.663959 h -3.4544 c -0.112889,0 -0.225778,0.06773 -0.270934,0.158044 -0.293511,0.451556 -2.822222,4.4704 -3.048,5.170311 -0.135466,0.383823 -0.248355,1.264356 0.112889,2.009423 0.6096,1.196622 4.8768,8.128 6.073422,10.092266 h -2.889955 c -0.564445,-0.903111 -3.612445,-5.644444 -4.154311,-6.524978 -0.451556,-0.880533 -0.541867,-1.738488 -0.541867,-2.754488 v -7.811912 c 0,-0.180622 -0.135467,-0.338666 -0.316089,-0.338666 h -3.364089 c -0.180622,0 -0.316089,0.158044 -0.316089,0.338666 v 17.407467 c 0,0.180622 0.135467,0.316089 0.316089,0.316089 h 3.364089 c 0.180622,0 0.316089,-0.135467 0.316089,-0.316089 v -3.815644 c 0,-0.180623 -0.135467,-0.293511 -0.316089,-0.293511 -0.180622,0 -0.338667,0.112888 -0.338667,0.293511 v 3.499555 H 24.822655 V 54.318714 h 2.709333 v 7.495823 c 0,0.970844 0.09031,2.009422 0.632178,3.070577 0.632178,1.016 4.154311,6.479823 4.289778,6.7056 0.04516,0.09031 0.158045,0.135467 0.270933,0.135467 z"
         style="font-style:normal;font-variant:normal;font-weight:normal;font-stretch:normal;font-size:22.57777786px;font-family:Neoneon;-inkscape-font-specification:Neoneon;stroke-width:0.26458332;fill:#ff9955"
         id="path14" />
      <path
         d="m 45.850328,71.726181 c 0.180622,0 0.316089,-0.135467 0.316089,-0.316089 v -7.3152 c 0,-0.180622 -0.135467,-0.316089 -0.316089,-0.316089 -0.180622,0 -0.338667,0.135467 -0.338667,0.316089 v 6.999111 h -2.709333 v -7.157155 c 0,-0.04516 0,-0.06773 0,-0.112889 l -3.138311,-9.505245 h 2.528711 c 0.383822,1.061156 1.986844,5.757334 2.460978,7.134578 0.180622,0.519289 0.587022,0.835378 1.128889,0.835378 0.541866,0 1.038577,-0.338667 1.196622,-0.8128 0.383822,-1.128889 2.415822,-7.337778 2.415822,-7.382933 0.04516,-0.09031 0.02258,-0.2032 -0.02258,-0.293512 -0.06773,-0.09031 -0.158044,-0.135466 -0.270933,-0.135466 h -3.206045 c -0.135466,0 -0.293511,0.112889 -0.316088,0.270933 l -0.790223,3.183467 c -0.04516,0.180622 0.04516,0.361244 0.225778,0.4064 0.180622,0.02258 0.361245,-0.06773 0.4064,-0.248356 l 0.722489,-2.957689 h 2.506133 c -0.474133,1.4224 -1.964266,5.983111 -2.280355,6.931378 -0.06773,0.225778 -0.316089,0.361245 -0.587022,0.361245 -0.180623,0 -0.4064,-0.04516 -0.519289,-0.361245 -0.541867,-1.580444 -2.528711,-7.360355 -2.528711,-7.360355 -0.02258,-0.135467 -0.158045,-0.225778 -0.293512,-0.225778 h -3.206044 c -0.112889,0 -0.225778,0.04516 -0.270933,0.135466 -0.04516,0.09031 -0.06773,0.2032 -0.04516,0.293512 l 3.2512,9.889066 v 7.428089 c 0,0.180622 0.135467,0.316089 0.316089,0.316089 z"
         style="font-style:normal;font-variant:normal;font-weight:normal;font-stretch:normal;font-size:22.57777786px;font-family:Neoneon;-inkscape-font-specification:Neoneon;stroke-width:0.26458332;fill:#ffffff"
         id="path16" />
      <path
         d="m 59.36207,71.726181 c 0.180622,0 0.338667,-0.135467 0.338667,-0.316089 v -3.206044 c 0,-0.180623 -0.158045,-0.338667 -0.338667,-0.338667 h -5.983111 c -0.654756,0 -1.083733,-0.09031 -1.083733,-1.196622 V 54.318714 h 2.664177 l 0.02258,11.7856 c 0,0.180623 0.135467,0.316089 0.316089,0.316089 0.180622,0 0.338667,-0.135466 0.338667,-0.316089 l -0.02258,-12.101689 c 0,-0.180622 -0.158045,-0.338666 -0.338667,-0.338666 h -3.296355 c -0.180623,0 -0.316089,0.158044 -0.316089,0.338666 v 12.666134 c 0,1.6256 0.903111,1.851378 1.715911,1.851378 h 5.667022 v 2.573866 h -7.066844 c -0.180623,0 -0.316089,0.135467 -0.316089,0.316089 0,0.180622 0.135466,0.316089 0.316089,0.316089 z"
         style="font-style:normal;font-variant:normal;font-weight:normal;font-stretch:normal;font-size:22.57777786px;font-family:Neoneon;-inkscape-font-specification:Neoneon;stroke-width:0.26458332;fill:#ffffff"
         id="path18" />
      <path
         d="m 70.743034,71.726181 c 0.180622,0 0.316089,-0.135467 0.316089,-0.316089 v -3.048 c 0,-0.180622 -0.135467,-0.338667 -0.316089,-0.338667 h -4.809067 v -1.896533 c 0,-0.180622 -0.135467,-0.338667 -0.316089,-0.338667 -0.180622,0 -0.338667,0.158045 -0.338667,0.338667 v 2.2352 c 0,0.180622 0.158045,0.316089 0.338667,0.316089 h 4.809067 v 2.415822 h -7.857067 v -5.418666 0 c 0,-0.745067 0.632178,-1.354667 1.377245,-1.354667 h 5.576711 c 0.180622,0 0.338666,-0.135467 0.338666,-0.316089 v -2.912533 c 0,-0.180623 -0.158044,-0.316089 -0.338666,-0.316089 h -3.589867 v -3.409245 h 4.809067 c 0.180622,0 0.316089,-0.135466 0.316089,-0.316089 v -3.048 c 0,-0.180622 -0.135467,-0.338666 -0.316089,-0.338666 h -8.489245 c -0.180622,0 -0.316089,0.158044 -0.316089,0.338666 v 8.624712 c 0,0.180622 0.135467,0.316088 0.316089,0.316088 0.180622,0 0.316089,-0.135466 0.316089,-0.316088 v -8.308623 h 7.857067 v 2.415823 h -4.809067 c -0.180622,0 -0.338667,0.135466 -0.338667,0.316088 v 4.041423 c 0,0.180622 0.158045,0.338666 0.338667,0.338666 h 3.612445 v 2.257778 h -5.305778 -0.04516 C 62.795656,63.71107 61.9377,64.591603 61.9377,65.652759 v 0.02258 5.734755 c 0,0.180622 0.135467,0.316089 0.316089,0.316089 z"
         style="font-style:normal;font-variant:normal;font-weight:normal;font-stretch:normal;font-size:22.57777786px;font-family:Neoneon;-inkscape-font-specification:Neoneon;stroke-width:0.26458332;fill:#ffffff"
         id="path20" />
      <path
         d="m 84.054047,54.318714 c 0.880533,0 1.196622,0.293511 1.603022,0.993423 l 7.382933,13.4112 0.02258,0.02258 c 0.02258,0.04516 0.06773,0.09031 0.112889,0.09031 0.02258,0.02258 0.09031,0.04516 0.112889,0.04516 h 0.112889 c 0.04516,0 0.06773,-0.04516 0.112889,-0.04516 0.02258,-0.02258 0.06773,-0.06773 0.09031,-0.09031 0.02258,-0.04515 0.02258,-0.09031 0.02258,-0.135466 v -0.04516 -14.562667 c 0,-0.180622 -0.112888,-0.338666 -0.293511,-0.338666 h -3.476977 c -0.180623,0 -0.316089,0.158044 -0.316089,0.338666 v 4.109156 c 0,0.180622 0.135466,0.338667 0.316089,0.338667 0.180622,0 0.338666,-0.158045 0.338666,-0.338667 v -3.793067 h 2.799645 V 67.300937 L 86.221513,55.018625 C 85.74738,54.183248 85.228091,53.663959 84.054047,53.663959 H 81.48018 c -0.180622,0 -0.316089,0.158044 -0.316089,0.338666 v 17.407467 c 0,0.09031 0.02258,0.180622 0.09031,0.225778 0.04516,0.06773 0.135467,0.09031 0.225778,0.09031 h 3.364089 c 0.180622,0 0.316089,-0.135467 0.316089,-0.316089 v -9.798755 l 4.402666,8.421511 v 0.02258 l 0.361245,0.564445 c 0.541867,0.790222 1.174044,1.106311 2.257778,1.106311 h 1.151466 c 0.180623,0 0.293511,-0.135467 0.293511,-0.316089 0,-0.180622 -0.112888,-0.316089 -0.293511,-0.316089 h -1.151466 c -0.993423,0 -1.354667,-0.293511 -1.693334,-0.8128 l -0.361244,-0.564444 -4.989689,-9.572978 -0.04516,-0.04516 c -0.02258,-0.02258 -0.04515,-0.06773 -0.09031,-0.09031 -0.04515,-0.02258 -0.09031,-0.02258 -0.135466,-0.02258 h -0.112889 c -0.04516,0 -0.06773,0.02258 -0.112889,0.04516 -0.04516,0.02258 -0.06773,0.04516 -0.09031,0.09031 -0.02258,0.04516 -0.04516,0.09031 -0.04516,0.135467 v 0.04516 10.792178 H 81.796269 V 54.318714 Z"
         style="font-style:normal;font-variant:normal;font-weight:normal;font-stretch:normal;font-size:22.57777786px;font-family:Neoneon;-inkscape-font-specification:Neoneon;stroke-width:0.26458332;fill:#ff9955"
         id="path22" />
      <path
         d="m 102.48528,71.997114 c 3.16088,0 4.28977,-4.696177 4.28977,-9.098844 0,-4.086578 -0.58702,-9.505245 -5.41866,-9.505245 -3.680181,0 -5.463825,3.002845 -5.463825,9.189156 0,3.364089 0.451555,5.712178 1.4224,7.405511 0.04515,0.09031 0.180622,0.316089 0.4064,0.587022 0.112889,0.158045 0.338666,0.158045 0.451555,0.04516 0.135467,-0.112889 0.158045,-0.338667 0.04516,-0.474133 -0.2032,-0.248356 -0.316089,-0.451556 -0.361245,-0.519289 -0.880533,-1.557867 -1.332088,-3.8608 -1.332088,-7.044267 0,-5.802489 1.535288,-8.511822 4.831647,-8.511822 3.2512,0 4.74133,2.822222 4.74133,8.827911 0,3.883378 -0.92569,8.421511 -3.58987,8.444089 h -0.0226 c -1.73849,0 -1.98685,-1.151467 -2.16747,-1.919111 l -0.0452,-0.135467 c -0.22577,-0.970844 -0.22577,-3.612444 -0.2032,-5.328356 0,-0.4064 0.0226,-0.722488 0.0226,-1.016 0,-2.032 0.0452,-4.041422 0.31609,-4.8768 0.27093,-0.767644 0.6096,-0.857955 0.88053,-0.857955 0.47414,0 0.74507,0.112889 0.97085,0.880533 0.31609,1.016 0.31609,3.4544 0.31609,4.515556 0,0.316089 -0.0226,3.296355 -0.2032,4.447822 -0.11289,0.722489 -0.27094,1.038578 -0.56445,1.196622 -0.15804,0.06773 -0.22578,0.270934 -0.13546,0.451556 0.0677,0.158044 0.27093,0.225778 0.42897,0.135466 0.6096,-0.316088 0.8128,-1.016 0.92569,-1.670755 0.18062,-1.174045 0.18062,-4.018845 0.18062,-4.560711 0,-1.174045 0,-3.612445 -0.33866,-4.718756 -0.29351,-0.970844 -0.74507,-1.354666 -1.58045,-1.354666 -0.69991,0 -1.17404,0.474133 -1.49013,1.332088 -0.293511,0.880534 -0.361244,2.686756 -0.361244,5.08 v 1.016 c -0.02258,1.761067 -0.04516,4.425245 0.2032,5.4864 l 0.02258,0.135467 c 0.158044,0.722489 0.564446,2.415822 2.777066,2.415822 z"
         style="font-style:normal;font-variant:normal;font-weight:normal;font-stretch:normal;font-size:22.57777786px;font-family:Neoneon;-inkscape-font-specification:Neoneon;stroke-width:0.26458332;fill:#ffffff"
         id="path24" />
      <path
         d="m 119.05807,71.726181 c 0.0903,0 0.18062,-0.02258 0.24835,-0.112889 0.0452,-0.09031 0.0903,-0.2032 0.0452,-0.293511 l -2.25778,-6.863644 c 0.0226,-0.02258 0.0677,-0.04516 0.0677,-0.04516 1.12889,-0.925689 1.80623,-2.754489 1.80623,-4.8768 0,-1.6256 -0.36125,-2.980267 -1.06116,-4.064 -1.12889,-1.783644 -2.91253,-1.806222 -4.4704,-1.806222 h -4.08658 c -0.18062,0 -0.31609,0.158044 -0.31609,0.338666 v 6.254045 c 0,0.180622 0.13547,0.316089 0.31609,0.316089 0.18062,0 0.31609,-0.135467 0.31609,-0.316089 v -5.937956 h 3.77049 c 1.53529,0 2.98027,0 3.92853,1.512711 0.63218,0.948267 0.97085,2.190045 0.97085,3.702756 0,1.896533 -0.63218,3.589867 -1.58045,4.357511 -0.0677,0.06773 -0.13546,0.135467 -0.22577,0.158045 -0.0677,0.06773 -0.13547,0.158044 -0.13547,0.248355 0,0.04516 0,0.112889 0.0226,0.135467 l 2.19004,6.660444 h -2.8448 l -1.67075,-6.163733 c 0,-0.06773 -0.0452,-0.135467 -0.0903,-0.158045 -0.0452,-0.06773 -0.11288,-0.112888 -0.2032,-0.112888 h -1.15146 c -0.18062,0 -0.33867,0.135466 -0.33867,0.316088 v 6.118578 h -2.6416 v -7.857066 c 0,-0.790223 0.2032,-0.993423 0.99342,-0.993423 h 2.77707 c 1.49013,0 2.05458,-0.790222 2.05458,-2.980266 0,-0.722489 0,-2.8448 -2.05458,-2.8448 h -0.79022 c -0.18062,0 -0.33867,0.135466 -0.33867,0.316089 v 3.070577 c 0,0.180623 0.15805,0.338667 0.33867,0.338667 0.18062,0 0.29351,-0.158044 0.29351,-0.338667 v -2.731911 h 0.49671 c 1.016,0 1.39982,0.632178 1.39982,2.190045 0,2.190044 -0.56444,2.348089 -1.39982,2.348089 h -2.77707 c -1.15146,0 -1.6256,0.474133 -1.6256,1.6256 v 8.173155 c 0,0.180622 0.13547,0.316089 0.31609,0.316089 h 3.29636 c 0.18062,0 0.29351,-0.135467 0.29351,-0.316089 v -6.096 h 0.6096 l 1.64818,6.186311 c 0.0451,0.135467 0.15804,0.225778 0.31609,0.225778 z"
         style="font-style:normal;font-variant:normal;font-weight:normal;font-stretch:normal;font-size:22.57777786px;font-family:Neoneon;-inkscape-font-specification:Neoneon;stroke-width:0.26458332;fill:#ffffff"
         id="path26" />
      <path
         d="m 131.66988,71.726181 c 0.0903,0 0.18062,-0.02258 0.24835,-0.112889 0.0452,-0.09031 0.0903,-0.2032 0.0452,-0.293511 l -2.25778,-6.863644 c 0.0226,-0.02258 0.0677,-0.04516 0.0677,-0.04516 1.12889,-0.925689 1.80622,-2.754489 1.80622,-4.8768 0,-1.6256 -0.36124,-2.980267 -1.06115,-4.064 -1.12889,-1.783644 -2.91253,-1.806222 -4.4704,-1.806222 h -4.08658 c -0.18062,0 -0.31609,0.158044 -0.31609,0.338666 v 6.254045 c 0,0.180622 0.13547,0.316089 0.31609,0.316089 0.18062,0 0.31609,-0.135467 0.31609,-0.316089 v -5.937956 h 3.77049 c 1.53529,0 2.98027,0 3.92853,1.512711 0.63218,0.948267 0.97085,2.190045 0.97085,3.702756 0,1.896533 -0.63218,3.589867 -1.58045,4.357511 -0.0677,0.06773 -0.13546,0.135467 -0.22578,0.158045 -0.0677,0.06773 -0.13546,0.158044 -0.13546,0.248355 0,0.04516 0,0.112889 0.0226,0.135467 l 2.19004,6.660444 h -2.8448 l -1.67076,-6.163733 c 0,-0.06773 -0.0451,-0.135467 -0.0903,-0.158045 -0.0451,-0.06773 -0.11289,-0.112888 -0.2032,-0.112888 h -1.15146 c -0.18063,0 -0.33867,0.135466 -0.33867,0.316088 v 6.118578 h -2.6416 v -7.857066 c 0,-0.790223 0.2032,-0.993423 0.99342,-0.993423 h 2.77707 c 1.49013,0 2.05458,-0.790222 2.05458,-2.980266 0,-0.722489 0,-2.8448 -2.05458,-2.8448 h -0.79022 c -0.18063,0 -0.33867,0.135466 -0.33867,0.316089 v 3.070577 c 0,0.180623 0.15804,0.338667 0.33867,0.338667 0.18062,0 0.29351,-0.158044 0.29351,-0.338667 v -2.731911 h 0.49671 c 1.016,0 1.39982,0.632178 1.39982,2.190045 0,2.190044 -0.56444,2.348089 -1.39982,2.348089 h -2.77707 c -1.15146,0 -1.6256,0.474133 -1.6256,1.6256 v 8.173155 c 0,0.180622 0.13547,0.316089 0.31609,0.316089 h 3.29636 c 0.18062,0 0.29351,-0.135467 0.29351,-0.316089 v -6.096 h 0.6096 l 1.64818,6.186311 c 0.0452,0.135467 0.15804,0.225778 0.31608,0.225778 z"
         style="font-style:normal;font-variant:normal;font-weight:normal;font-stretch:normal;font-size:22.57777786px;font-family:Neoneon;-inkscape-font-specification:Neoneon;stroke-width:0.26458332;fill:#ffffff"
         id="path28" />
      <path
         d="m 137.82443,71.726181 c 0.18062,0 0.31609,-0.135467 0.31609,-0.316089 V 54.002625 c 0,-0.180622 -0.13547,-0.338666 -0.31609,-0.338666 h -3.2512 c -0.18062,0 -0.31609,0.158044 -0.31609,0.338666 v 1.964267 c 0,0.180622 0.13547,0.316089 0.31609,0.316089 0.18062,0 0.31609,-0.135467 0.31609,-0.316089 v -1.648178 h 2.61902 v 16.775289 h -2.61902 V 59.353559 c 0,-1.128889 0.42898,-1.2192 1.06116,-1.2192 h 0.38382 c 0.18062,0 0.33867,-0.135467 0.33867,-0.316089 0,-0.180622 -0.15805,-0.338667 -0.33867,-0.338667 h -0.38382 c -0.79023,0 -1.69334,0.225778 -1.69334,1.873956 v 12.056533 c 0,0.180622 0.13547,0.316089 0.31609,0.316089 z"
         style="font-style:normal;font-variant:normal;font-weight:normal;font-stretch:normal;font-size:22.57777786px;font-family:Neoneon;-inkscape-font-specification:Neoneon;stroke-width:0.26458332;fill:#ffffff"
         id="path30" />
      <path
         d="m 145.46666,71.726181 c 0.6096,0 1.76107,-0.06773 2.68676,-0.519289 1.58044,-0.745067 2.59644,-2.573867 2.52871,-4.538133 -0.0677,-1.806222 -0.99343,-3.228622 -2.50614,-3.815645 -0.69991,-0.293511 -1.49013,-0.474133 -2.25777,-0.632177 -2.00943,-0.451556 -3.90596,-0.880534 -4.33494,-3.160889 -0.29351,-1.535289 0.29351,-2.596445 0.79022,-3.228623 0.8128,-0.948266 2.05458,-1.512711 3.34152,-1.512711 2.46097,0 3.54471,1.761067 4.04142,3.318934 l -1.94169,0.903111 c -0.2032,-0.677334 -0.54187,-1.377245 -1.28693,-1.693334 -0.90312,-0.361244 -1.89654,0.02258 -2.32552,0.925689 -0.47413,0.948267 -0.18062,2.032 0.76765,2.686756 0.13547,0.112889 0.36124,0.06773 0.47413,-0.06773 0.0903,-0.135467 0.0452,-0.338667 -0.0903,-0.451556 -0.67733,-0.474133 -0.88053,-1.2192 -0.54187,-1.873956 0.27094,-0.587022 0.88054,-0.857955 1.44498,-0.6096 0.63218,0.248356 0.90311,0.993423 1.03858,1.6256 0.0226,0.09031 0.0903,0.180623 0.18062,0.225778 0.0903,0.04516 0.18062,0.04516 0.27094,0 l 2.52871,-1.196622 c 0.13546,-0.06773 0.22577,-0.225778 0.18062,-0.383822 -0.72249,-2.619022 -2.39325,-4.064 -4.74133,-4.064 -1.49014,0 -2.91254,0.654755 -3.83823,1.761066 -0.58702,0.722489 -1.26435,1.964267 -0.94826,3.747912 0.49671,2.709333 2.70933,3.206044 4.85422,3.680177 0.74507,0.158045 1.46755,0.338667 2.14489,0.6096 1.24178,0.496711 2.032,1.715911 2.09973,3.228623 0.0452,1.693333 -0.8128,3.273777 -2.14489,3.928533 -0.63218,0.293511 -1.49013,0.474133 -2.41582,0.474133 -3.16089,0 -3.92853,-2.370666 -4.35751,-3.928533 l 2.05458,-0.835378 c 0.2032,0.835378 0.56444,1.941689 1.69333,2.257778 0.63218,0.180622 1.24178,0.09031 1.73849,-0.293511 0.49671,-0.361245 0.8128,-0.993422 0.8128,-1.715911 0,-1.286934 -0.79022,-1.851378 -1.51271,-2.190045 -0.15805,-0.06773 -0.36125,-0.02258 -0.42898,0.135467 -0.0677,0.158044 -0.0226,0.361244 0.15804,0.428978 0.58703,0.293511 1.12889,0.699911 1.12889,1.6256 0,0.496711 -0.18062,0.925689 -0.54186,1.196622 -0.31609,0.248355 -0.74507,0.316089 -1.17405,0.180622 -0.85795,-0.248355 -1.10631,-1.151467 -1.30951,-2.144889 -0.0226,-0.09031 -0.0903,-0.180622 -0.18062,-0.225778 -0.0903,-0.02258 -0.18062,-0.04516 -0.27093,0 l -2.70934,1.083734 c -0.13546,0.04516 -0.22578,0.2032 -0.18062,0.361244 v 0.09031 c 0.45156,1.603023 1.26436,4.605867 5.08,4.605867 z"
         style="font-style:normal;font-variant:normal;font-weight:normal;font-stretch:normal;font-size:22.57777786px;font-family:Neoneon;-inkscape-font-specification:Neoneon;stroke-width:0.26458332;fill:#ffffff"
         id="path32" />
    </g>
  </g>
</svg>
